HIERARCHY
ROOT SpineBase
{
  OFFSET 0.000000 0.000000 0.000000
  CHANNELS 6 Xposition Yposition Zposition Zrotation Xrotation Yrotation
  JOINT SpineMid
  {
    OFFSET 0.000000 33.497569 0.000000
    CHANNELS 3 Zrotation Xrotation Yrotation
    JOINT SpineShoulder
    {
      OFFSET -0.125341 24.696630 -0.620895
      CHANNELS 3 Zrotation Xrotation Yrotation
      JOINT Neck
      {
        OFFSET -0.028355 8.118762 -0.587308
        CHANNELS 3 Zrotation Xrotation Yrotation
        JOINT Head
        {
          OFFSET -0.922609 10.954590 10.269423
          CHANNELS 3 Zrotation Xrotation Yrotation
          End Site
          {
            OFFSET 0 0 0
          }
        }
      }
      JOINT ShoulderLeft
      {
        OFFSET -13.359591 -8.935029 6.891770
        CHANNELS 3 Zrotation Xrotation Yrotation
        JOINT ElbowLeft
        {
          OFFSET 15.847651 -18.919876 -17.951904
          CHANNELS 3 Zrotation Xrotation Yrotation
          JOINT WristLeft
          {
            OFFSET 13.011698 -19.245806 -8.365124
            CHANNELS 3 Zrotation Xrotation Yrotation
            JOINT HandLeft
            {
              OFFSET 4.206013 -7.037935 -3.694938
              CHANNELS 3 Zrotation Xrotation Yrotation
              JOINT HandTipLeft
              {
                OFFSET 6.857989 -6.901880 0.173809
                CHANNELS 3 Zrotation Xrotation Yrotation
                End Site
                {
                  OFFSET 0 0 0
                }
              }
              JOINT ThumbLeft
              {
                OFFSET -5.213262 -4.945051 4.553566
                CHANNELS 3 Zrotation Xrotation Yrotation
                End Site
                {
                  OFFSET 0 0 0
                }
              }
            }
          }
        }
      }
      JOINT ShoulderRight
      {
        OFFSET 5.208974 -5.020651 -15.923166
        CHANNELS 3 Zrotation Xrotation Yrotation
        JOINT ElbowRight
        {
          OFFSET -1.341154 -28.736578 -7.753022
          CHANNELS 3 Zrotation Xrotation Yrotation
          JOINT WristRight
          {
            OFFSET 0.127501 -23.184900 -2.153673
            CHANNELS 3 Zrotation Xrotation Yrotation
            JOINT HandRight
            {
              OFFSET 2.918979 -6.822237 9.490601
              CHANNELS 3 Zrotation Xrotation Yrotation
              JOINT HandTipRight
              {
                OFFSET -0.324533 -3.766480 -0.449508
                CHANNELS 3 Zrotation Xrotation Yrotation
                End Site
                {
                  OFFSET 0 0 0
                }
              }
              JOINT ThumbRight
              {
                OFFSET -4.092527 -1.782068 -1.138766
                CHANNELS 3 Zrotation Xrotation Yrotation
                End Site
                {
                  OFFSET 0 0 0
                }
              }
            }
          }
        }
      }
    }
  }
  JOINT HipLeft
  {
    OFFSET -3.565768 1.028455 -8.685859
    CHANNELS 3 Zrotation Xrotation Yrotation
    JOINT KneeLeft
    {
      OFFSET 17.507664 -36.973964 -5.032322
      CHANNELS 3 Zrotation Xrotation Yrotation
      JOINT AnkleLeft
      {
        OFFSET 1.348639 -39.634043 -1.382145
        CHANNELS 3 Zrotation Xrotation Yrotation
        JOINT FootLeft
        {
          OFFSET 5.219979 -7.082225 -2.439943
          CHANNELS 3 Zrotation Xrotation Yrotation
          End Site
          {
            OFFSET 0 0 0
          }
        }
      }
    }
  }
  JOINT HipRight
  {
    OFFSET 4.393833 0.861288 1.178833
    CHANNELS 3 Zrotation Xrotation Yrotation
    JOINT KneeRight
    {
      OFFSET -2.982512 -39.991943 1.015716
      CHANNELS 3 Zrotation Xrotation Yrotation
      JOINT AnkleRight
      {
        OFFSET 3.863674 -39.644339 1.322857
        CHANNELS 3 Zrotation Xrotation Yrotation
        JOINT FootRight
        {
          OFFSET -7.380159 -4.349230 -10.191897
          CHANNELS 3 Zrotation Xrotation Yrotation
          End Site
          {
            OFFSET 0 0 0
          }
        }
      }
    }
  }
}
MOTION
Frames: 13
Frame Time: 0.033333
-41.073603 83.313751 311.982357 -0.000000 0.000000 -51.100711 -0.000000 0.000000 51.100711 -0.000000 0.000000 0.000000 -0.000000 0.000000 0.000000 0.000000 0.000000 0.000000 -0.000000 0.000000 0.000000 -0.000000 0.000000 0.000000 -0.000000 0.000000 0.000000 -0.000000 0.000000 0.000000 0.000000 0.000000 0.000000 0.000000 0.000000 0.000000 -0.000000 0.000000 0.000000 -0.000000 0.000000 0.000000 -0.000000 0.000000 0.000000 -0.000000 0.000000 0.000000 0.000000 0.000000 0.000000 0.000000 0.000000 0.000000 -0.000000 0.000000 51.100711 -0.000000 0.000000 0.000000 -0.000000 0.000000 0.000000 0.000000 0.000000 0.000000 -0.000000 0.000000 51.100711 -0.000000 0.000000 0.000000 -0.000000 0.000000 0.000000 0.000000 0.000000 0.000000
-41.000086 83.275409 312.000188 0.124804 -0.028599 -51.028300 -0.100729 -0.079043 51.028261 -0.000000 0.000000 0.000000 -0.000000 0.000000 0.000000 0.000000 0.000000 0.000000 0.622490 0.009347 -0.580180 0.203308 -0.664942 -0.213795 -0.285661 0.131893 0.207145 0.444576 -0.162883 -0.062612 0.000000 0.000000 0.000000 0.000000 0.000000 0.000000 1.064077 0.879180 -0.335739 -1.059033 -0.885249 0.319393 -0.769443 -0.594529 -1.322973 8.367187 2.100617 0.102655 0.000000 0.000000 0.000000 0.000000 0.000000 0.000000 -0.100729 -0.079043 51.028261 -0.000000 0.000000 0.000000 -0.000000 0.000000 0.000000 0.000000 0.000000 0.000000 -0.100729 -0.079043 51.028261 -0.000000 0.000000 0.000000 -0.000000 0.000000 0.000000 0.000000 0.000000 0.000000
-40.931330 83.241340 311.995340 0.246395 -0.054548 -50.930151 -0.197645 -0.156916 50.929998 -0.000000 0.000000 0.000000 -0.000000 0.000000 0.000000 0.000000 0.000000 0.000000 1.150638 -0.000883 -1.083400 0.387429 -1.212848 -0.377837 -0.680129 0.343189 0.525282 0.759947 -0.450040 -0.299256 0.000000 0.000000 0.000000 0.000000 0.000000 0.000000 1.848637 1.538588 -0.593725 -1.833273 -1.556864 0.543990 -1.319396 -1.039384 -2.274428 15.211230 3.935212 -0.263829 0.000000 0.000000 0.000000 0.000000 0.000000 0.000000 -0.197645 -0.156916 50.929998 -0.000000 0.000000 0.000000 -0.975044 -0.935003 -0.364501 0.000000 0.000000 0.000000 -0.197645 -0.156916 50.929998 -0.000000 0.000000 0.000000 -0.000000 0.000000 0.000000 0.000000 0.000000 0.000000
-40.867336 83.211544 311.967813 0.364788 -0.077850 -50.806104 -0.290863 -0.233518 50.805759 -0.000000 0.000000 0.000000 -0.000000 0.000000 0.000000 0.000000 0.000000 0.000000 1.583906 -0.028391 -1.509148 0.549491 -1.641582 -0.494719 -1.183524 0.631175 0.954230 0.947981 -0.870723 -0.713160 0.000000 0.000000 0.000000 0.000000 0.000000 0.000000 2.351149 1.982232 -0.764773 -2.325921 -2.011778 0.683249 -1.651466 -1.351729 -2.865466 20.401885 5.345591 -0.877969 0.000000 0.000000 0.000000 0.000000 0.000000 0.000000 -0.290863 -0.233518 50.805759 -0.000000 0.000000 0.000000 -1.310750 -1.202927 -0.454291 0.000000 0.000000 0.000000 -0.290863 -0.233518 50.805759 -0.000000 0.000000 0.000000 0.253222 0.223744 -0.972733 0.000000 0.000000 0.000000
-40.808103 83.186021 311.917607 0.480000 -0.098507 -50.655814 -0.380492 -0.308756 50.655201 -0.000000 0.000000 0.000000 -0.000000 0.000000 0.000000 0.000000 0.000000 0.000000 1.922002 -0.071247 -1.857160 0.687036 -1.949606 -0.566615 -1.796833 0.992786 1.494482 1.003633 -1.428702 -1.310567 0.000000 0.000000 0.000000 0.000000 0.000000 0.000000 2.570250 2.213215 -0.842995 -2.539375 -2.248578 0.743496 -1.767198 -1.542668 -3.104055 23.951958 6.281279 -1.571901 0.000000 0.000000 0.000000 0.000000 0.000000 0.000000 -0.380492 -0.308756 50.655201 -0.000000 0.000000 0.000000 -1.540952 -1.335837 -0.478338 0.000000 0.000000 0.000000 -0.380492 -0.308756 50.655201 -0.000000 0.000000 0.000000 0.317260 0.280030 -1.218120 0.000000 0.000000 0.000000
-40.753632 83.164771 311.844722 0.592044 -0.116521 -50.478754 -0.466643 -0.382545 50.477799 -0.000000 0.000000 0.000000 -0.000000 0.000000 0.000000 0.000000 0.000000 0.000000 2.164804 -0.127899 -2.127346 0.797945 -2.135777 -0.595090 -2.521847 1.424564 2.147171 0.914308 -2.121924 -2.101149 0.000000 0.000000 0.000000 0.000000 0.000000 0.000000 2.505318 2.233080 -0.825588 -2.474828 -2.266827 0.727782 -1.667186 -1.617346 -2.994169 25.932712 6.749211 -2.247707 0.000000 0.000000 0.000000 0.000000 0.000000 0.000000 -0.466643 -0.382545 50.477799 -0.000000 0.000000 0.000000 -1.664022 -1.333164 -0.435095 0.000000 0.000000 0.000000 -0.466643 -0.382545 50.477799 -0.000000 0.000000 0.000000 0.371024 0.327506 -1.424470 0.000000 0.000000 0.000000
-40.624263 83.134091 311.653096 0.777967 -0.045809 -50.696830 0.284499 -0.684712 50.710635 -0.428224 0.699709 -0.004601 -0.000000 0.000000 0.000000 0.000000 0.000000 0.000000 2.353760 -0.195431 -2.356264 0.897100 -2.208451 -0.572246 -3.282354 2.270589 3.059613 0.038746 -2.947803 -2.924219 0.000000 0.000000 0.000000 0.000000 0.000000 0.000000 1.770522 1.937860 -0.595820 -1.751298 -1.955249 0.535986 -1.273689 -1.509970 -2.401855 24.771217 7.351638 -2.842924 0.000000 0.000000 0.000000 0.000000 0.000000 0.000000 -0.575767 -1.424212 50.548993 0.687514 0.504187 0.141654 -1.694521 -1.414488 -0.487070 0.000000 0.000000 0.000000 -1.035959 -1.484614 50.673088 1.026920 0.184974 0.010637 0.460604 0.436355 -1.817604 0.000000 0.000000 0.000000
-40.572403 83.117674 311.533314 0.891381 -0.071505 -50.368615 0.269558 -0.754943 50.384815 -0.481739 0.760698 -0.005054 -0.000000 0.000000 0.000000 0.000000 0.000000 0.000000 2.438446 -0.222593 -2.456112 0.905369 -2.156627 -0.493719 -4.520455 2.256829 3.778139 -0.246796 -3.555484 -4.225425 0.000000 0.000000 0.000000 0.000000 0.000000 0.000000 0.990986 1.394684 -0.343537 -0.982901 -1.400394 0.319462 -0.489327 -1.054195 -1.123918 23.076318 5.883471 -3.448428 0.000000 0.000000 0.000000 0.000000 0.000000 0.000000 -0.663151 -1.608411 50.191233 0.768547 0.589076 0.169725 -1.627265 -1.111311 -0.278086 0.000000 0.000000 0.000000 -0.980758 -1.818628 50.364721 1.134801 0.476213 -0.011418 0.477381 0.436074 -1.856885 0.000000 0.000000 0.000000
-40.590270 83.108084 311.465304 0.942510 -0.159015 -49.603764 0.234521 -0.779029 49.621221 -0.196554 0.074950 0.012266 -0.304308 0.767655 -0.017302 0.000000 0.000000 0.000000 1.909795 -0.013826 -2.760021 1.031956 -1.552538 -0.193108 -4.949417 5.524235 5.917062 -0.379882 -7.739974 -7.323741 0.000000 0.000000 0.000000 0.000000 0.000000 0.000000 -0.304308 0.767655 -0.017302 -0.000000 0.000000 0.000000 0.540552 -0.622839 0.483791 19.782090 5.082771 -4.384895 0.000000 0.000000 0.000000 0.000000 0.000000 0.000000 -0.889576 -1.493428 49.489989 0.770474 0.450911 0.105224 -1.456043 -0.589941 0.060007 0.000000 0.000000 0.000000 -0.870144 -1.949962 49.626619 1.106819 0.759565 -0.035904 0.445513 0.378650 -1.685959 0.000000 0.000000 0.000000
-40.667998 83.092539 311.446246 0.929100 -0.289173 -48.501302 0.187173 -0.759289 48.518667 -0.201478 0.109447 0.011504 -0.282606 0.823119 -0.015547 0.000000 0.000000 0.000000 1.723075 -0.017892 -2.616637 0.987294 -1.385832 -0.166641 -6.261388 4.692512 6.293913 -1.088086 -6.897300 -7.964334 0.000000 0.000000 0.000000 0.000000 0.000000 0.000000 -0.282606 0.823119 -0.015547 -0.000000 0.000000 0.000000 0.631108 -0.811036 0.528951 18.849574 4.353611 -4.106878 0.000000 0.000000 0.000000 0.000000 0.000000 0.000000 -0.832212 -0.504264 48.499984 -0.000000 0.000000 0.000000 -1.189676 -0.033787 0.387628 0.000000 0.000000 0.000000 -0.747686 -1.908834 48.550557 0.996924 0.993076 -0.057433 0.401604 0.289571 -1.433462 0.000000 0.000000 0.000000
-40.811982 83.112301 311.463655 0.848737 -0.411456 -47.214803 0.130669 -0.715495 47.229866 -0.199031 0.146263 0.008591 -0.213066 0.847141 -0.010885 0.000000 0.000000 0.000000 1.695850 0.499356 -2.112177 0.799358 -1.547961 -0.318956 -8.314840 2.635451 6.331683 -1.340835 -4.915167 -8.257925 0.000000 0.000000 0.000000 0.000000 0.000000 0.000000 0.817452 1.369718 -0.332918 -1.027396 -0.528334 0.297361 0.363037 -1.123771 0.027348 22.562708 4.529055 -4.288935 0.000000 0.000000 0.000000 0.000000 0.000000 0.000000 -0.878469 -0.343423 47.215218 -0.000000 0.000000 0.000000 -0.850461 0.728883 0.838380 0.000000 0.000000 0.000000 -0.515747 -1.736756 47.292463 0.777916 1.211541 -0.078886 0.357727 0.231551 -1.232578 0.000000 0.000000 0.000000
-41.012045 83.137146 311.521803 0.710963 -0.561334 -45.874059 0.102646 -0.671087 45.885472 -0.189128 0.166706 0.004487 -0.111397 0.935542 -0.003884 0.000000 0.000000 0.000000 1.837377 1.438338 -1.445221 0.293287 -1.935636 -0.472092 -10.208487 -0.383699 5.516110 -1.710559 -1.837506 -7.626736 0.000000 0.000000 0.000000 0.000000 0.000000 0.000000 1.702613 1.845405 -0.578874 -1.804724 -0.927217 0.516363 0.063784 -2.006310 -0.750200 22.509515 5.789323 -3.898739 0.000000 0.000000 0.000000 0.000000 0.000000 0.000000 -0.897920 -0.119538 45.876605 -0.000000 0.000000 0.000000 -0.857078 1.145807 1.150744 0.000000 0.000000 0.000000 -0.223539 -1.415760 45.977278 0.463412 1.385702 -0.097241 0.314632 0.161960 -1.013917 0.000000 0.000000 0.000000
-41.207864 83.151978 311.545509 0.578961 -0.672792 -44.587459 0.074932 -0.643400 44.594731 -0.180244 0.181815 -0.000146 -0.000368 1.001769 0.003478 0.000000 0.000000 0.000000 2.295760 3.124457 -0.463115 -0.736795 -2.999000 -0.838450 -13.099345 -5.253563 3.691332 -0.583247 2.279150 -6.961771 0.000000 0.000000 0.000000 0.000000 0.000000 0.000000 3.074696 2.141042 -0.962221 -3.055710 -1.187648 0.849669 -0.264022 -2.432821 -1.374646 22.524356 6.233553 -3.389766 0.000000 0.000000 0.000000 0.000000 0.000000 0.000000 -1.402120 0.650736 44.956171 -0.042200 -0.774694 -0.361770 3.173883 -2.627907 -2.920961 0.000000 0.000000 0.000000 0.145798 -1.175629 44.717911 0.146042 1.612016 -0.118628 -0.000000 0.000000 0.000000 0.000000 0.000000 0.000000
